<?xml version="1.0" encoding="UTF-8"?>
<svg width="752pt" height="752pt" version="1.1" viewBox="0 0 752 752" xmlns="http://www.w3.org/2000/svg">
 <path d="m563.07 265.18h-58.723l-10.418-59.199c-1.8945-9.9453-7.1055-18.941-15.629-24.625s-18.469-8.0508-28.414-6.1562l-267.1 46.883c-20.836 3.7891-34.57 23.207-30.781 44.043l41.203 232.53c1.8945 9.9453 7.5781 18.469 15.629 24.625 6.6289 4.7344 13.734 7.1055 21.785 7.1055 2.3672 0 4.7344 0 6.6289-0.47266l16.574-2.8398v12.785c0 20.836 17.051 37.887 37.887 37.887h271.36c20.836 0 37.887-17.051 37.887-37.887l-0.003906-236.32c0-21.312-17.051-38.359-37.887-38.359zm-21.785 81.457c0 13.262-10.418 23.68-23.68 23.68-13.262 0-23.68-10.418-23.68-23.68s10.418-23.68 23.68-23.68c12.789 0 23.68 10.891 23.68 23.68zm-310.2 152.02c-2.3672 0.47266-4.2617-0.47266-4.7344-0.94531-0.94531-0.47266-2.3672-1.8945-2.8398-4.2617l-40.73-232.53c-0.47266-3.7891 1.8945-7.1055 5.2109-7.5781l267.1-47.359h0.94531c1.8945 0 3.3164 0.94531 3.7891 1.4219 0.94531 0.47266 2.3672 1.8945 2.8398 4.2617l9.4727 53.988h-180.44c-20.836 0-37.887 17.051-37.887 37.887v191.33zm331.98 47.355h-271.36c-3.7891 0-6.6289-2.8398-6.6289-6.6289v-64.406l88.559-101.82c2.3672-2.8398 6.6289-2.8398 8.9961 0l54.938 62.512c0.94531 0.94531 1.4219 2.3672 0.94531 3.7891l-7.1055 32.203c-0.47266 2.3672 2.3672 3.7891 3.7891 1.8945l54.934-60.145c1.8945-1.8945 4.7344-1.8945 6.1562 0l72.93 80.035v45.938c0.007812 3.7891-2.832 6.6289-6.1484 6.6289z"/>
</svg>
